<svg version="1.1" id="Layer_1" xmlns="http://www.w3.org/2000/svg" xmlns:xlink="http://www.w3.org/1999/xlink" x="0px" y="0px"
	 width="100%" viewBox="0 0 1024 1024" enable-background="new 0 0 1024 1024" xml:space="preserve">
<path fill="#114A50" opacity="1.000000" stroke="none" 
	d="
M404.072083,649.051941 
	C404.175110,648.999390 404.409088,649.067871 404.560974,649.267700 
	C404.478851,649.399048 404.203094,649.172913 404.072083,649.051941 
z"/>
<path fill="#000000" opacity="1.000000" stroke="none" 
	d="
M336.342896,639.391724 
	C338.080139,635.093628 339.655426,631.147278 341.754791,625.888062 
	C346.645264,638.409973 351.057800,649.708252 355.711212,661.623352 
	C346.479645,661.623352 338.091583,661.623352 328.421448,661.623352 
	C331.076569,654.136597 333.628784,646.940063 336.342896,639.391724 
z"/>
<path fill="#000000" opacity="1.000000" stroke="none" 
	d="
M486.989502,656.989746 
	C479.983185,656.990417 473.474609,656.990417 466.966034,656.990417 
	C466.987671,656.509827 467.009338,656.029236 467.030975,655.548706 
	C467.872070,655.620300 468.713165,655.691833 469.558777,655.761780 
	C470.804169,646.054321 476.260712,641.450073 485.619598,642.154846 
	C495.181763,642.874878 501.810120,649.789307 500.723877,656.989014 
	C496.378540,656.989014 491.932861,656.989014 486.989502,656.989746 
z"/>
<path fill="#000000" opacity="1.000000" stroke="none" 
	d="
M671.987549,679.854980 
	C670.390503,673.418396 676.025513,667.551880 682.557983,668.373352 
	C683.369507,668.475464 684.568420,669.184265 684.898438,668.875366 
	C689.814697,664.273804 695.183960,669.754944 700.037415,667.738159 
	C703.144348,675.411926 699.240295,679.483582 694.234070,682.305908 
	C686.238098,686.813782 676.896362,685.813293 671.987549,679.854980 
z"/>
<path fill="#000000" opacity="1.000000" stroke="none" 
	d="
M703.059204,693.026611 
	C703.147705,692.659424 703.387268,692.406860 703.626770,692.154236 
	C703.656494,692.437561 703.686218,692.720825 703.621948,693.176025 
	C703.528015,693.347900 703.210266,693.141235 703.059204,693.026611 
z"/>
</svg>